<svg width="401" height="123" viewBox="0 0 401 123" fill="none" xmlns="http://www.w3.org/2000/svg">
<g clip-path="url(#clip0)">
<g clip-path="url(#clip1)">
<path d="M150.02 79.27H136.7L126.63 60.99H123.8V79.27H112V30.83H131.8C135.62 30.83 138.873 31.4967 141.56 32.83C144.253 34.1633 146.267 35.9933 147.6 38.32C148.933 40.64 149.6 43.2267 149.6 46.08C149.6 49.3 148.693 52.1767 146.88 54.71C145.06 57.2367 142.38 59.03 138.84 60.09L150.02 79.27ZM123.8 40.63V52.64H131.11C133.27 52.64 134.893 52.11 135.98 51.05C137.06 49.99 137.6 48.4933 137.6 46.56C137.6 44.72 137.06 43.2733 135.98 42.22C134.893 41.16 133.27 40.63 131.11 40.63H123.8ZM153.64 59.95C153.64 55.9967 154.387 52.5233 155.88 49.53C157.38 46.5433 159.417 44.2433 161.99 42.63C164.563 41.0233 167.437 40.22 170.61 40.22C173.33 40.22 175.713 40.77 177.76 41.87C179.807 42.9767 181.38 44.4267 182.48 46.22V40.77H194.28V79.27H182.48V73.82C181.333 75.6133 179.737 77.0633 177.69 78.17C175.643 79.27 173.263 79.82 170.55 79.82C167.417 79.82 164.563 79.0033 161.99 77.37C159.417 75.7367 157.38 73.4133 155.88 70.4C154.387 67.3867 153.64 63.9033 153.64 59.95ZM182.48 60.02C182.48 57.0733 181.663 54.75 180.03 53.05C178.397 51.35 176.407 50.5 174.06 50.5C171.72 50.5 169.733 51.34 168.1 53.02C166.467 54.6933 165.65 57.0033 165.65 59.95C165.65 62.8967 166.467 65.23 168.1 66.95C169.733 68.6767 171.72 69.54 174.06 69.54C176.407 69.54 178.397 68.69 180.03 66.99C181.663 65.29 182.48 62.9667 182.48 60.02ZM229.23 50.15L212.88 69.54H229.58V79.27H199.7V69.89L215.71 50.5H199.84V40.77H229.23V50.15ZM261.63 40.77H274.39L250.24 97.55H237.55L246.38 77.96L230.71 40.77H243.89L252.79 64.85L261.63 40.77ZM289.47 46.22C290.57 44.4267 292.157 42.9767 294.23 41.87C296.297 40.77 298.667 40.22 301.34 40.22C304.513 40.22 307.387 41.0233 309.96 42.63C312.54 44.2433 314.577 46.5433 316.07 49.53C317.563 52.5233 318.31 55.9967 318.31 59.95C318.31 63.9033 317.563 67.3867 316.07 70.4C314.577 73.4133 312.54 75.7367 309.96 77.37C307.387 79.0033 304.513 79.82 301.34 79.82C298.627 79.82 296.257 79.28 294.23 78.2C292.203 77.12 290.617 75.6833 289.47 73.89V79.27H277.67V28.21H289.47V46.22ZM306.3 59.95C306.3 57.0033 305.483 54.6933 303.85 53.02C302.223 51.34 300.213 50.5 297.82 50.5C295.473 50.5 293.483 51.35 291.85 53.05C290.217 54.75 289.4 57.0733 289.4 60.02C289.4 62.9667 290.217 65.29 291.85 66.99C293.483 68.69 295.473 69.54 297.82 69.54C300.167 69.54 302.167 68.6767 303.82 66.95C305.473 65.23 306.3 62.8967 306.3 59.95ZM329.45 36.77C327.383 36.77 325.693 36.16 324.38 34.94C323.073 33.72 322.42 32.2133 322.42 30.42C322.42 28.58 323.073 27.05 324.38 25.83C325.693 24.61 327.383 24 329.45 24C331.477 24 333.147 24.61 334.46 25.83C335.767 27.05 336.42 28.58 336.42 30.42C336.42 32.2133 335.767 33.72 334.46 34.94C333.147 36.16 331.477 36.77 329.45 36.77ZM323.52 40.77H335.32V79.27H323.52V40.77ZM360.13 69.27H364.33V79.27H358.33C354.05 79.27 350.717 78.2233 348.33 76.13C345.937 74.0367 344.74 70.62 344.74 65.88V50.57H340.05V40.77H344.74V31.38H356.54V40.77H364.27V50.57H356.54V66.02C356.54 67.1733 356.817 68.0033 357.37 68.51C357.917 69.0167 358.837 69.27 360.13 69.27ZM385.55 79.82C382.197 79.82 379.207 79.2467 376.58 78.1C373.96 76.9467 371.89 75.37 370.37 73.37C368.857 71.37 368.007 69.1267 367.82 66.64H379.48C379.62 67.9733 380.24 69.0567 381.34 69.89C382.447 70.7167 383.803 71.13 385.41 71.13C386.883 71.13 388.023 70.8433 388.83 70.27C389.637 69.69 390.04 68.94 390.04 68.02C390.04 66.92 389.463 66.1033 388.31 65.57C387.163 65.0433 385.3 64.4567 382.72 63.81C379.96 63.17 377.66 62.4933 375.82 61.78C373.98 61.0667 372.393 59.94 371.06 58.4C369.727 56.86 369.06 54.7767 369.06 52.15C369.06 49.9433 369.67 47.9333 370.89 46.12C372.11 44.3 373.903 42.86 376.27 41.8C378.643 40.7467 381.46 40.22 384.72 40.22C389.553 40.22 393.36 41.4133 396.14 43.8C398.927 46.1933 400.527 49.37 400.94 53.33H390.04C389.853 51.99 389.267 50.93 388.28 50.15C387.287 49.37 385.987 48.98 384.38 48.98C383 48.98 381.943 49.2433 381.21 49.77C380.47 50.3033 380.1 51.03 380.1 51.95C380.1 53.05 380.687 53.8767 381.86 54.43C383.033 54.9833 384.863 55.5367 387.35 56.09C390.197 56.8233 392.52 57.5467 394.32 58.26C396.113 58.9733 397.687 60.1233 399.04 61.71C400.4 63.2967 401.103 65.4233 401.15 68.09C401.15 70.3433 400.517 72.3567 399.25 74.13C397.983 75.9033 396.167 77.2933 393.8 78.3C391.427 79.3133 388.677 79.82 385.55 79.82Z" fill="white"/>
</g>
<path d="M31.0961 67.6683C31.0905 66.3864 30.6878 65.1377 29.9435 64.0941C29.1991 63.0504 28.1497 62.263 26.9395 61.8403V58.6734C26.9272 56.6806 26.1382 54.7713 24.7402 53.3512L18.1425 46.7534C17.4907 46.0802 17.1209 45.1833 17.1088 44.2463V35.1414C17.1088 34.596 16.8922 34.073 16.5066 33.6874C16.1209 33.3018 15.5979 33.0851 15.0525 33.0851C14.5072 33.0851 13.9842 33.3018 13.5985 33.6874C13.2129 34.073 12.9962 34.596 12.9962 35.1414V44.0704C13.0074 46.0698 13.7961 47.9864 15.1955 49.4145L21.9032 56.0123C22.2508 56.3598 22.5221 56.7759 22.7001 57.234C22.8781 57.6922 22.9587 58.1824 22.9368 58.6734V61.9283C21.8672 62.2959 20.9194 62.951 20.1976 63.8217C19.4757 64.6924 19.0076 65.7452 18.8446 66.8644C18.6816 67.9837 18.83 69.1262 19.2735 70.1667C19.717 71.2071 20.4386 72.1053 21.359 72.7628C22.2793 73.4202 23.363 73.8114 24.4911 73.8935C25.6192 73.9756 26.7481 73.7455 27.7539 73.2283C28.7598 72.7111 29.6038 71.9268 30.1934 70.9616C30.7829 69.9963 31.0952 68.8873 31.0961 67.7563V67.6683ZM27.0934 67.6683C27.0934 68.1033 26.9644 68.5285 26.7228 68.8901C26.4811 69.2518 26.1377 69.5337 25.7358 69.7001C25.3339 69.8666 24.8917 69.9101 24.4651 69.8253C24.0385 69.7404 23.6466 69.531 23.3391 69.2234C23.0315 68.9158 22.822 68.524 22.7372 68.0973C22.6523 67.6707 22.6959 67.2285 22.8623 66.8267C23.0288 66.4248 23.3107 66.0813 23.6723 65.8397C24.034 65.598 24.4592 65.469 24.8942 65.469C25.4775 65.469 26.0368 65.7008 26.4493 66.1132C26.8617 66.5256 27.0934 67.085 27.0934 67.6683Z" fill="white"/>
<path d="M32.6355 54.1429C32.9641 54.4724 33.2245 54.8634 33.4019 55.2936C33.5792 55.7238 33.6701 56.1847 33.6692 56.65V74.244C32.4054 74.6874 31.3199 75.5292 30.576 76.6429C29.8321 77.7566 29.4701 79.0817 29.5445 80.4189C29.619 81.7561 30.1258 83.033 30.9887 84.0572C31.8515 85.0814 33.0238 85.7976 34.3289 86.098C34.7635 86.1843 35.2054 86.2285 35.6485 86.2299C37.0651 86.2419 38.4416 85.7597 39.5412 84.8664C40.3991 84.1754 41.056 83.2669 41.4434 82.2357C41.8307 81.2044 41.9343 80.0881 41.7434 79.0032C41.5525 77.9182 41.074 76.9044 40.3579 76.0673C39.6417 75.2302 38.7141 74.6006 37.6718 74.244V56.65C37.663 54.6502 36.8739 52.7327 35.4726 51.3059L26.6756 42.5089C26.016 41.8408 25.6449 40.9406 25.6419 40.0017V30.8749C25.6419 30.7286 25.671 30.5838 25.7277 30.4489C25.7843 30.314 25.8673 30.1918 25.9717 30.0894C26.0762 29.987 26.2 29.9065 26.336 29.8525C26.4719 29.7986 26.6173 29.7723 26.7635 29.7752H38.8814C39.3675 29.7842 39.8412 29.6216 40.2193 29.3159C40.5974 29.0102 40.8557 28.581 40.9487 28.1038C40.9952 27.8169 40.9801 27.5233 40.9042 27.2427C40.8284 26.962 40.6936 26.7008 40.5088 26.4764C40.3192 26.2537 40.0831 26.0753 39.8172 25.9537C39.5512 25.8321 39.2618 25.7703 38.9694 25.7726H25.7739C25.2315 25.7549 24.691 25.8465 24.1847 26.0419C23.6785 26.2373 23.2166 26.5326 22.8268 26.9101C22.4369 27.2877 22.127 27.7398 21.9155 28.2395C21.7039 28.7393 21.595 29.2765 21.5953 29.8192V39.9797C21.5923 41.982 22.3832 43.9037 23.7945 45.3239L32.6355 54.1429ZM33.5152 80.138C33.5152 79.703 33.6442 79.2778 33.8859 78.9162C34.1275 78.5545 34.471 78.2726 34.8729 78.1062C35.2747 77.9397 35.7169 77.8962 36.1435 77.981C36.5701 78.0659 36.962 78.2753 37.2696 78.5829C37.5772 78.8905 37.7866 79.2823 37.8715 79.709C37.9563 80.1356 37.9128 80.5778 37.7463 80.9796C37.5799 81.3815 37.298 81.725 36.9363 81.9666C36.5747 82.2083 36.1494 82.3373 35.7145 82.3373C35.1312 82.3373 34.5718 82.1056 34.1594 81.6931C33.7469 81.2807 33.5152 80.7213 33.5152 80.138Z" fill="white"/>
<path d="M63.7769 86.3619C62.495 86.3675 61.2463 86.7701 60.2027 87.5145C59.159 88.2588 58.3716 89.3083 57.9489 90.5185H54.782C52.7874 90.5213 50.8746 91.3117 49.4598 92.7177L42.862 99.3155C42.1939 99.975 41.2937 100.346 40.3549 100.349H31.25C30.7526 100.401 30.2921 100.636 29.9573 101.007C29.6226 101.379 29.4374 101.861 29.4374 102.361C29.4374 102.862 29.6226 103.344 29.9573 103.716C30.2921 104.087 30.7526 104.322 31.25 104.374H40.179C42.1798 104.37 44.0989 103.58 45.5231 102.174L52.1209 95.5767C52.4665 95.2252 52.8817 94.9498 53.34 94.768C53.7982 94.5862 54.2894 94.5021 54.782 94.5211H58.0369C58.4045 95.5908 59.0596 96.5385 59.9303 97.2604C60.801 97.9823 61.8538 98.4504 62.973 98.6134C64.0923 98.7764 65.2348 98.628 66.2753 98.1845C67.3157 97.7409 68.2139 97.0194 68.8714 96.099C69.5288 95.1786 69.92 94.095 70.0021 92.9669C70.0842 91.8388 69.8541 90.7099 69.3369 89.704C68.8197 88.6981 68.0354 87.8541 67.0702 87.2646C66.1049 86.675 64.9959 86.3627 63.8649 86.3619H63.7769ZM63.7769 94.6751C63.3419 94.6751 62.9167 94.5461 62.5551 94.3044C62.1934 94.0628 61.9115 93.7193 61.7451 93.3174C61.5786 92.9156 61.5351 92.4734 61.6199 92.0468C61.7048 91.6202 61.9142 91.2283 62.2218 90.9207C62.5294 90.6131 62.9212 90.4037 63.3478 90.3188C63.7745 90.234 64.2167 90.2775 64.6185 90.444C65.0204 90.6104 65.3639 90.8923 65.6055 91.254C65.8472 91.6156 65.9762 92.0408 65.9762 92.4758C65.9762 93.0591 65.7444 93.6185 65.332 94.0309C64.9196 94.4434 64.3602 94.6751 63.7769 94.6751Z" fill="white"/>
<path d="M77.4342 87.8354C78.4937 87.6259 79.4794 87.1415 80.2925 86.4308C81.1056 85.7201 81.7175 84.808 82.0668 83.7861C82.416 82.7642 82.4904 81.6684 82.2825 80.6087C82.0745 79.549 81.5915 78.5626 80.882 77.7484C80.1724 76.9343 79.2612 76.3211 78.2398 75.9704C77.2184 75.6196 76.1227 75.5437 75.0627 75.7501C74.0027 75.9566 73.0156 76.4381 72.2005 77.1465C71.3853 77.855 70.7708 78.7653 70.4186 79.7862H52.8246C50.8224 79.7832 48.9007 80.574 47.4805 81.9854L38.6835 90.7824C38.0154 91.442 37.1152 91.8131 36.1763 91.8161H26.9835C26.6918 91.8161 26.4121 91.7002 26.2059 91.494C25.9997 91.2878 25.8838 91.0081 25.8838 90.7164V78.5986C25.8876 78.1162 25.7226 77.6477 25.4174 77.2742C25.1121 76.9006 24.6859 76.6456 24.2124 76.5533C23.9255 76.5007 23.6305 76.5129 23.3489 76.589C23.0673 76.6651 22.8063 76.8032 22.585 76.9931C22.3534 77.166 22.1626 77.3876 22.0258 77.6421C21.889 77.8967 21.8096 78.1781 21.7932 78.4666V91.7721C21.7932 92.3035 21.8979 92.8297 22.1013 93.3206C22.3046 93.8116 22.6027 94.2577 22.9785 94.6335C23.3542 95.0092 23.8003 95.3073 24.2913 95.5107C24.7822 95.714 25.3085 95.8187 25.8399 95.8187H36.0884C37.0803 95.8238 38.0634 95.632 38.9808 95.2545C39.8981 94.877 40.7315 94.3212 41.4325 93.6194L50.2295 84.8224C50.559 84.4939 50.95 84.2334 51.3802 84.0561C51.8104 83.8787 52.2713 83.7879 52.7367 83.7888H70.3307C70.8188 85.2127 71.8098 86.4095 73.1177 87.1546C74.4256 87.8996 75.9605 88.1417 77.4342 87.8354V87.8354ZM78.4019 81.7875C78.4019 82.2225 78.2729 82.6477 78.0313 83.0093C77.7896 83.371 77.4461 83.6529 77.0443 83.8193C76.6424 83.9858 76.2002 84.0293 75.7736 83.9445C75.347 83.8596 74.9551 83.6502 74.6476 83.3426C74.34 83.035 74.1305 82.6431 74.0457 82.2165C73.9608 81.7899 74.0044 81.3477 74.1708 80.9459C74.3373 80.544 74.6191 80.2005 74.9808 79.9589C75.3425 79.7172 75.7677 79.5882 76.2027 79.5882C76.4915 79.5882 76.7774 79.6451 77.0443 79.7556C77.3111 79.8662 77.5535 80.0282 77.7578 80.2324C77.962 80.4366 78.124 80.679 78.2345 80.9459C78.345 81.2127 78.4019 81.4987 78.4019 81.7875V81.7875Z" fill="white"/>
<path d="M98.3491 71.8689L91.7513 65.2711C91.4227 64.9417 91.1623 64.5506 90.985 64.1204C90.8076 63.6903 90.7168 63.2293 90.7177 62.764V59.5091C92.0991 59.0378 93.2681 58.0911 94.0164 56.838C94.7646 55.5848 95.0434 54.1066 94.8031 52.6669C94.5627 51.2273 93.8188 49.9198 92.7039 48.9777C91.5891 48.0356 90.1759 47.5202 88.7164 47.5232C87.9077 47.5232 87.107 47.6825 86.3598 47.9919C85.6127 48.3014 84.9339 48.755 84.3621 49.3268C83.7903 49.8986 83.3367 50.5775 83.0272 51.3246C82.7178 52.0717 82.5585 52.8724 82.5585 53.6811C82.564 54.963 82.9667 56.2117 83.711 57.2553C84.4554 58.299 85.5049 59.0864 86.7151 59.5091V62.742C86.7121 64.7442 87.5029 66.666 88.9143 68.0862L95.512 74.6839C95.8553 75.0219 96.1259 75.4264 96.3074 75.8726C96.489 76.3188 96.5775 76.7974 96.5677 77.279V86.186C96.6198 86.6834 96.8542 87.1439 97.2258 87.4787C97.5974 87.8134 98.0799 87.9986 98.58 87.9986C99.0801 87.9986 99.5626 87.8134 99.9342 87.4787C100.306 87.1439 100.54 86.6834 100.592 86.186V77.279C100.596 76.2736 100.399 75.2776 100.014 74.3488C99.6286 73.42 99.0628 72.5771 98.3491 71.8689V71.8689ZM90.7837 53.6151C90.7837 54.0501 90.6547 54.4753 90.413 54.837C90.1714 55.1986 89.8279 55.4805 89.426 55.647C89.0242 55.8134 88.582 55.857 88.1554 55.7721C87.7288 55.6873 87.3369 55.4778 87.0293 55.1702C86.7217 54.8627 86.5123 54.4708 86.4274 54.0442C86.3426 53.6176 86.3861 53.1754 86.5526 52.7735C86.719 52.3716 87.0009 52.0282 87.3626 51.7865C87.7242 51.5449 88.1494 51.4159 88.5844 51.4159C88.8789 51.4157 89.1703 51.4747 89.4416 51.5894C89.7128 51.704 89.9582 51.8719 90.1633 52.0832C90.3684 52.2944 90.529 52.5447 90.6356 52.8192C90.7421 53.0937 90.7925 53.3868 90.7837 53.6811V53.6151Z" fill="white"/>
<path d="M80.931 67.2064C80.2715 66.5383 79.9003 65.6381 79.8974 64.6993V47.1053C81.2756 46.6317 82.4411 45.6847 83.1868 44.4326C83.9324 43.1805 84.2099 41.7046 83.9698 40.2672C83.7297 38.8298 82.9876 37.5242 81.8755 36.5824C80.7634 35.6406 79.3534 35.1238 77.8961 35.1238C76.4388 35.1238 75.0287 35.6406 73.9166 36.5824C72.8045 37.5242 72.0624 38.8298 71.8223 40.2672C71.5822 41.7046 71.8597 43.1805 72.6054 44.4326C73.351 45.6847 74.5166 46.6317 75.8948 47.1053V64.6993C75.8918 66.7015 76.6826 68.6233 78.094 70.0435L86.891 78.8405C87.2196 79.17 87.48 79.561 87.6573 79.9912C87.8347 80.4214 87.9255 80.8823 87.9246 81.3476V90.4305C87.9276 90.5768 87.9013 90.7221 87.8473 90.8581C87.7934 90.994 87.7128 91.1179 87.6104 91.2223C87.508 91.3268 87.3858 91.4097 87.251 91.4664C87.1161 91.523 86.9713 91.5522 86.825 91.5521H74.7072C74.2248 91.5483 73.7563 91.7134 73.3828 92.0186C73.0092 92.3238 72.7542 92.7501 72.6619 93.2236C72.6093 93.5105 72.6215 93.8055 72.6976 94.0871C72.7737 94.3686 72.9118 94.6297 73.1017 94.851C73.2898 95.0697 73.5226 95.2457 73.7843 95.367C74.046 95.4884 74.3307 95.5524 74.6192 95.5548H87.9246C88.9961 95.549 90.022 95.1208 90.7796 94.3632C91.5373 93.6055 91.9655 92.5796 91.9713 91.5082V81.3696C91.9763 80.3776 91.7846 79.3945 91.4071 78.4772C91.0296 77.5598 90.4738 76.7265 89.772 76.0254L80.931 67.2064ZM80.0513 41.2113C80.0513 41.6463 79.9223 42.0715 79.6807 42.4332C79.439 42.7948 79.0956 43.0767 78.6937 43.2432C78.2918 43.4096 77.8496 43.4532 77.423 43.3683C76.9964 43.2835 76.6045 43.074 76.297 42.7664C75.9894 42.4589 75.7799 42.067 75.6951 41.6404C75.6102 41.2138 75.6538 40.7716 75.8202 40.3697C75.9867 39.9679 76.2686 39.6244 76.6302 39.3827C76.9919 39.1411 77.4171 39.0121 77.8521 39.0121C78.1409 39.0121 78.4269 39.069 78.6937 39.1795C78.9605 39.29 79.203 39.452 79.4072 39.6562C79.6114 39.8604 79.7734 40.1029 79.8839 40.3697C79.9944 40.6365 80.0513 40.9225 80.0513 41.2113V41.2113Z" fill="white"/>
<path d="M49.7897 34.9875C51.0716 34.9819 52.3202 34.5792 53.3639 33.8349C54.4076 33.0905 55.1949 32.0411 55.6177 30.8309H58.8506C60.8505 30.822 62.7679 30.033 64.1947 28.6316L70.7925 22.0339C71.4645 21.3802 72.3622 21.0101 73.2996 21.0002H82.2066C82.7374 21.0002 83.2464 20.7894 83.6217 20.4141C83.9971 20.0388 84.2079 19.5297 84.2079 18.9989C84.2079 18.4682 83.9971 17.9591 83.6217 17.5838C83.2464 17.2085 82.7374 16.9976 82.2066 16.9976H73.3876C71.3804 16.9597 69.4382 17.7097 67.9775 19.0869L61.3797 25.7946C61.0502 26.1232 60.6592 26.3836 60.229 26.561C59.7988 26.7383 59.3379 26.8292 58.8726 26.8283H55.6177C55.1949 25.6181 54.4076 24.5686 53.3639 23.8242C52.3202 23.0799 51.0716 22.6772 49.7897 22.6717C48.1565 22.6717 46.5902 23.3205 45.4354 24.4753C44.2806 25.6301 43.6318 27.1964 43.6318 28.8296C43.6318 30.4627 44.2806 32.029 45.4354 33.1839C46.5902 34.3387 48.1565 34.9875 49.7897 34.9875ZM49.7897 26.6743C50.2246 26.6743 50.6498 26.8033 51.0115 27.0449C51.3732 27.2866 51.6551 27.6301 51.8215 28.0319C51.988 28.4338 52.0315 28.876 51.9467 29.3026C51.8618 29.7292 51.6523 30.1211 51.3448 30.4287C51.0372 30.7362 50.6453 30.9457 50.2187 31.0305C49.7921 31.1154 49.3499 31.0719 48.9481 30.9054C48.5462 30.7389 48.2027 30.4571 47.9611 30.0954C47.7194 29.7337 47.5904 29.3085 47.5904 28.8736C47.5904 28.2903 47.8221 27.7309 48.2346 27.3185C48.647 26.906 49.2064 26.6743 49.7897 26.6743V26.6743Z" fill="white"/>
<path d="M36.1323 33.514C35.0709 33.7195 34.0823 34.2009 33.2659 34.9098C32.4495 35.6186 31.8342 36.5299 31.4817 37.552C31.1292 38.5741 31.0521 39.671 31.258 40.7323C31.4639 41.7937 31.9456 42.7822 32.6547 43.5983C33.3638 44.4145 34.2753 45.0295 35.2975 45.3817C36.3197 45.7338 37.4167 45.8106 38.478 45.6043C39.5393 45.3981 40.5276 44.916 41.3435 44.2066C42.1594 43.4972 42.7741 42.5855 43.1259 41.5632H60.7199C62.7198 41.5544 64.6373 40.7653 66.0641 39.364L74.8611 30.567C75.1906 30.2384 75.5816 29.978 76.0118 29.8006C76.442 29.6232 76.9029 29.5324 77.3682 29.5333H86.4511C86.7486 29.5333 87.0339 29.6515 87.2442 29.8618C87.4546 30.0722 87.5728 30.3575 87.5728 30.6549V42.7728C87.5638 43.2589 87.7264 43.7327 88.0321 44.1107C88.3378 44.4888 88.767 44.7471 89.2442 44.8401C89.5311 44.8866 89.8247 44.8715 90.1053 44.7956C90.386 44.7198 90.6472 44.585 90.8716 44.4002C91.0909 44.2078 91.267 43.9712 91.3883 43.7058C91.5096 43.4405 91.5733 43.1525 91.5754 42.8608V29.6653C91.5754 29.1339 91.4707 28.6077 91.2674 28.1167C91.064 27.6257 90.7659 27.1797 90.3902 26.8039C90.0144 26.4281 89.5683 26.1301 89.0773 25.9267C88.5864 25.7233 88.0602 25.6187 87.5288 25.6187H77.4782C75.476 25.6157 73.5542 26.4065 72.134 27.8179L63.337 36.6149C63.0076 36.9435 62.6165 37.2039 62.1863 37.3813C61.7561 37.5586 61.2952 37.6495 60.8299 37.6486H43.2359C42.7731 36.2027 41.7907 34.9798 40.4787 34.2161C39.1666 33.4525 37.6181 33.2023 36.1323 33.514ZM35.1647 39.5619C35.1647 39.1269 35.2936 38.7017 35.5353 38.3401C35.777 37.9784 36.1204 37.6965 36.5223 37.5301C36.9242 37.3636 37.3663 37.32 37.793 37.4049C38.2196 37.4898 38.6114 37.6992 38.919 38.0068C39.2266 38.3144 39.436 38.7062 39.5209 39.1328C39.6058 39.5595 39.5622 40.0017 39.3957 40.4035C39.2293 40.8054 38.9474 41.1489 38.5857 41.3905C38.2241 41.6322 37.7989 41.7611 37.3639 41.7611C36.7806 41.7611 36.2212 41.5294 35.8088 41.117C35.3964 40.7046 35.1647 40.1452 35.1647 39.5619V39.5619Z" fill="white"/>
</g>
<defs>
<clipPath id="clip0">
<rect width="401" height="123" fill="white"/>
</clipPath>
<clipPath id="clip1">
<rect width="289.15" height="73.55" fill="white" transform="translate(112 24)"/>
</clipPath>
</defs>
</svg>
